<svg width="64" height="64" viewBox="0 0 64 64" fill="none" xmlns="http://www.w3.org/2000/svg">
  <rect width="64" height="64" rx="8" fill="#050505"/>
  <rect x="8.5" y="8.5" width="47" height="47" rx="3.5" stroke="#B3263A"/>
  <path d="M19 39V25h8.6c3.1 0 5.1 1.7 5.1 4.2 0 1.6-.9 2.8-2.3 3.4 1.8.5 2.9 1.8 2.9 3.8 0 2.7-2.1 4.6-5.5 4.6H19Zm4-8.3h4c1.1 0 1.8-.6 1.8-1.6 0-1-.7-1.6-1.9-1.6H23v3.2Zm0 5.8h4.4c1.3 0 2-.6 2-1.7 0-1.1-.8-1.7-2.1-1.7H23v3.4Z" fill="#F1EDE6"/>
  <path d="M36 38.9v-3.4c1.5.9 3.4 1.4 5.1 1.4 1.8 0 2.7-.5 2.7-1.5 0-.9-.7-1.2-3.1-1.8-3.4-.8-5-2.1-5-4.5 0-2.8 2.3-4.5 6.2-4.5 1.8 0 3.5.4 4.8 1v3.3c-1.3-.7-3-1.1-4.6-1.1-1.6 0-2.4.5-2.4 1.3 0 .8.7 1.1 3.1 1.7 3.6.9 5.1 2.2 5.1 4.7 0 2.9-2.4 4.7-6.5 4.7-2.1 0-4.1-.5-5.4-1.3Z" fill="#F1EDE6"/>
  <rect x="16" y="45" width="32" height="3" fill="#B3263A"/>
</svg>
